<svg id="visual" viewBox="0 0 900 600" width="900" height="600" xmlns="http://www.w3.org/2000/svg" xmlns:xlink="http://www.w3.org/1999/xlink" version="1.1"><path d="M0 288L35 327L69 298L104 315L138 291L173 296L208 312L242 313L277 311L312 308L346 298L381 305L415 279L450 287L485 317L519 303L554 315L588 277L623 321L658 299L692 316L727 295L762 277L796 301L831 277L865 273L900 308L900 601L865 601L831 601L796 601L762 601L727 601L692 601L658 601L623 601L588 601L554 601L519 601L485 601L450 601L415 601L381 601L346 601L312 601L277 601L242 601L208 601L173 601L138 601L104 601L69 601L35 601L0 601Z" fill="#0F2E56" stroke-linecap="square" stroke-linejoin="bevel"></path></svg>