<svg id="visual" viewBox="0 0 900 600" width="900" height="600" xmlns="http://www.w3.org/2000/svg" xmlns:xlink="http://www.w3.org/1999/xlink" version="1.1"><path d="M0 270L41 253L82 354L123 251L164 303L205 325L245 355L286 335L327 272L368 356L409 285L450 275L491 246L532 242L573 244L614 279L655 328L695 269L736 280L777 256L818 278L859 245L900 359L900 601L859 601L818 601L777 601L736 601L695 601L655 601L614 601L573 601L532 601L491 601L450 601L409 601L368 601L327 601L286 601L245 601L205 601L164 601L123 601L82 601L41 601L0 601Z" fill="#0B2547" stroke-linecap="square" stroke-linejoin="bevel"></path></svg>