<svg id="visual" viewBox="0 0 900 600" width="900" height="600" xmlns="http://www.w3.org/2000/svg" xmlns:xlink="http://www.w3.org/1999/xlink" version="1.1"><path d="M0 239L53 366L106 350L159 247L212 234L265 228L318 342L371 344L424 371L476 312L529 212L582 271L635 251L688 257L741 353L794 246L847 323L900 368L900 601L847 601L794 601L741 601L688 601L635 601L582 601L529 601L476 601L424 601L371 601L318 601L265 601L212 601L159 601L106 601L53 601L0 601Z" fill="#071C38" stroke-linecap="square" stroke-linejoin="bevel"></path></svg>