<svg width="100%" height="100%" fill="none" xmlns="http://www.w3.org/2000/svg">
<pattern x="0" y="0" width="1440" height="1024" viewBox="0,0,1440,1024" id="pattern-stars" patternUnits="userSpaceOnUse">
    <circle cx="747.5" cy="25.5" r="2.5" fill="#D9D9D9"/>
    <circle cx="875" cy="76" r="2.5" fill="#D9D9D9"/>
    <circle cx="770.5" cy="145" r="2.5" fill="#D9D9D9"/>
    <circle cx="859.5" cy="196" r="2.5" fill="#D9D9D9"/>
    <circle cx="987" cy="246.5" r="2.5" fill="#D9D9D9"/>
    <circle cx="886.5" cy="337.5" r="2.5" fill="#D9D9D9"/>
    <circle cx="979.5" cy="176" r="2.5" fill="#D9D9D9"/>
    <circle cx="775.5" cy="427" r="2.5" fill="#D9D9D9"/>
    <circle cx="903" cy="477.5" r="2.5" fill="#D9D9D9"/>
    <circle cx="997.5" cy="340" r="2.5" fill="#D9D9D9"/>
    <circle cx="735.5" cy="285.5" r="2.5" fill="#D9D9D9"/>
    <circle cx="744.5" cy="355" r="2.5" fill="#D9D9D9"/>
    <circle cx="1274" cy="295" r="2.5" fill="#D9D9D9"/>
    <circle cx="1163" cy="384.5" r="2.5" fill="#D9D9D9"/>
    <circle cx="1290.5" cy="435" r="2.5" fill="#D9D9D9"/>
    <circle cx="1132" cy="312.5" r="2.5" fill="#D9D9D9"/>
    <circle cx="982" cy="460" r="2.5" fill="#D9D9D9"/>
    <circle cx="1147.5" cy="178.5" r="2.5" fill="#D9D9D9"/>
    <circle cx="1109.5" cy="71" r="5" fill="#D9D9D9"/>
    <circle cx="1216.5" cy="427.5" r="5" fill="#D9D9D9"/>
    <circle cx="1345.5" cy="268.5" r="5" fill="#D9D9D9"/>
    <circle cx="812.5" cy="263.5" r="5" fill="#D9D9D9"/>
    <circle cx="930.5" cy="422" r="5" fill="#D9D9D9"/>
    <circle cx="940.5" cy="35" r="5" fill="#D9D9D9"/>
    <circle cx="1059" cy="225.5" r="2.5" fill="#D9D9D9"/>
    <circle cx="1338" cy="364.5" r="2.5" fill="#D9D9D9"/>
    <circle cx="1186.5" cy="276" r="2.5" fill="#D9D9D9"/>
    <circle cx="1258.5" cy="181" r="2.5" fill="#D9D9D9"/>
    <circle cx="1021" cy="141" r="2.5" fill="#D9D9D9"/>
    <circle cx="1219" cy="161.5" r="2.5" fill="#D9D9D9"/>
    <circle cx="1211.5" cy="91" r="2.5" fill="#D9D9D9"/>
    <circle cx="1379.5" cy="93.5" r="2.5" fill="#D9D9D9"/>
    <circle cx="1291" cy="140.5" r="2.5" fill="#D9D9D9"/>
    <circle cx="1418.5" cy="191" r="2.5" fill="#D9D9D9"/>
    <circle cx="1253" cy="56" r="2.5" fill="#D9D9D9"/>
    <circle cx="1258.5" cy="246" r="2.5" fill="#D9D9D9"/>
    <circle cx="1405.5" cy="427" r="2.5" fill="#D9D9D9"/>
    <circle cx="1318" cy="408" r="2.5" fill="#D9D9D9"/>
    <circle cx="1390" cy="378" r="2.5" fill="#D9D9D9"/>
    <circle cx="1102" cy="440" r="2.5" fill="#D9D9D9"/>
    <circle cx="1257.5" cy="364.5" r="2.5" fill="#D9D9D9"/>
    <circle cx="1242" cy="484.5" r="2.5" fill="#D9D9D9"/>
    <circle cx="1362" cy="464.5" r="2.5" fill="#D9D9D9"/>
    <circle cx="33.5" cy="25.5" r="2.5" fill="#D9D9D9"/>
    <circle cx="161" cy="76" r="2.5" fill="#D9D9D9"/>
    <circle cx="56.5" cy="145" r="2.5" fill="#D9D9D9"/>
    <circle cx="145.5" cy="196" r="2.5" fill="#D9D9D9"/>
    <circle cx="273" cy="246.5" r="2.5" fill="#D9D9D9"/>
    <circle cx="172.5" cy="337.5" r="2.5" fill="#D9D9D9"/>
    <circle cx="265.5" cy="176" r="2.5" fill="#D9D9D9"/>
    <circle cx="61.5" cy="427" r="2.5" fill="#D9D9D9"/>
    <circle cx="189" cy="477.5" r="2.5" fill="#D9D9D9"/>
    <circle cx="283.5" cy="340" r="2.5" fill="#D9D9D9"/>
    <circle cx="21.5" cy="285.5" r="2.5" fill="#D9D9D9"/>
    <circle cx="30.5" cy="355" r="2.5" fill="#D9D9D9"/>
    <circle cx="560" cy="295" r="2.5" fill="#D9D9D9"/>
    <circle cx="449" cy="384.5" r="2.5" fill="#D9D9D9"/>
    <circle cx="576.5" cy="435" r="2.5" fill="#D9D9D9"/>
    <circle cx="418" cy="312.5" r="2.5" fill="#D9D9D9"/>
    <circle cx="268" cy="460" r="2.5" fill="#D9D9D9"/>
    <circle cx="433.5" cy="178.5" r="2.5" fill="#D9D9D9"/>
    <circle cx="395.5" cy="71" r="5" fill="#D9D9D9"/>
    <circle cx="502.5" cy="427.5" r="5" fill="#D9D9D9"/>
    <circle cx="631.5" cy="268.5" r="5" fill="#D9D9D9"/>
    <circle cx="98.5" cy="263.5" r="5" fill="#D9D9D9"/>
    <circle cx="216.5" cy="422" r="5" fill="#D9D9D9"/>
    <circle cx="226.5" cy="35" r="5" fill="#D9D9D9"/>
    <circle cx="345" cy="225.5" r="2.5" fill="#D9D9D9"/>
    <circle cx="624" cy="364.5" r="2.5" fill="#D9D9D9"/>
    <circle cx="472.5" cy="276" r="2.5" fill="#D9D9D9"/>
    <circle cx="544.5" cy="181" r="2.5" fill="#D9D9D9"/>
    <circle cx="307" cy="141" r="2.5" fill="#D9D9D9"/>
    <circle cx="505" cy="161.5" r="2.5" fill="#D9D9D9"/>
    <circle cx="497.5" cy="91" r="2.5" fill="#D9D9D9"/>
    <circle cx="665.5" cy="93.5" r="2.5" fill="#D9D9D9"/>
    <circle cx="577" cy="140.5" r="2.5" fill="#D9D9D9"/>
    <circle cx="704.5" cy="191" r="2.5" fill="#D9D9D9"/>
    <circle cx="539" cy="56" r="2.5" fill="#D9D9D9"/>
    <circle cx="544.5" cy="246" r="2.5" fill="#D9D9D9"/>
    <circle cx="691.5" cy="427" r="2.5" fill="#D9D9D9"/>
    <circle cx="604" cy="408" r="2.5" fill="#D9D9D9"/>
    <circle cx="676" cy="378" r="2.5" fill="#D9D9D9"/>
    <circle cx="388" cy="440" r="2.5" fill="#D9D9D9"/>
    <circle cx="543.5" cy="364.5" r="2.5" fill="#D9D9D9"/>
    <circle cx="528" cy="484.5" r="2.5" fill="#D9D9D9"/>
    <circle cx="648" cy="464.5" r="2.5" fill="#D9D9D9"/>
    <circle cx="734.5" cy="514.5" r="2.5" fill="#D9D9D9"/>
    <circle cx="862" cy="565" r="2.5" fill="#D9D9D9"/>
    <circle cx="757.5" cy="634" r="2.5" fill="#D9D9D9"/>
    <circle cx="846.5" cy="685" r="2.5" fill="#D9D9D9"/>
    <circle cx="974" cy="735.5" r="2.5" fill="#D9D9D9"/>
    <circle cx="873.5" cy="826.5" r="2.5" fill="#D9D9D9"/>
    <circle cx="966.5" cy="665" r="2.5" fill="#D9D9D9"/>
    <circle cx="762.5" cy="916" r="2.5" fill="#D9D9D9"/>
    <circle cx="890" cy="966.5" r="2.5" fill="#D9D9D9"/>
    <circle cx="984.5" cy="829" r="2.5" fill="#D9D9D9"/>
    <circle cx="722.5" cy="774.5" r="2.5" fill="#D9D9D9"/>
    <circle cx="731.5" cy="844" r="2.5" fill="#D9D9D9"/>
    <circle cx="1261" cy="784" r="2.5" fill="#D9D9D9"/>
    <circle cx="1150" cy="873.5" r="2.5" fill="#D9D9D9"/>
    <circle cx="1277.5" cy="924" r="2.5" fill="#D9D9D9"/>
    <circle cx="1119" cy="801.5" r="2.5" fill="#D9D9D9"/>
    <circle cx="969" cy="949" r="2.5" fill="#D9D9D9"/>
    <circle cx="1134.5" cy="667.5" r="2.5" fill="#D9D9D9"/>
    <circle cx="1096.5" cy="560" r="5" fill="#D9D9D9"/>
    <circle cx="1203.5" cy="916.5" r="5" fill="#D9D9D9"/>
    <circle cx="1332.5" cy="757.5" r="5" fill="#D9D9D9"/>
    <circle cx="799.5" cy="752.5" r="5" fill="#D9D9D9"/>
    <circle cx="917.5" cy="911" r="5" fill="#D9D9D9"/>
    <circle cx="927.5" cy="524" r="5" fill="#D9D9D9"/>
    <circle cx="1046" cy="714.5" r="2.5" fill="#D9D9D9"/>
    <circle cx="1325" cy="853.5" r="2.5" fill="#D9D9D9"/>
    <circle cx="1173.5" cy="765" r="2.5" fill="#D9D9D9"/>
    <circle cx="1245.5" cy="670" r="2.5" fill="#D9D9D9"/>
    <circle cx="1008" cy="630" r="2.5" fill="#D9D9D9"/>
    <circle cx="1206" cy="650.5" r="2.5" fill="#D9D9D9"/>
    <circle cx="1198.5" cy="580" r="2.5" fill="#D9D9D9"/>
    <circle cx="1366.5" cy="582.5" r="2.5" fill="#D9D9D9"/>
    <circle cx="1278" cy="629.5" r="2.5" fill="#D9D9D9"/>
    <circle cx="1405.5" cy="680" r="2.5" fill="#D9D9D9"/>
    <circle cx="1240" cy="545" r="2.5" fill="#D9D9D9"/>
    <circle cx="1245.5" cy="735" r="2.5" fill="#D9D9D9"/>
    <circle cx="1392.5" cy="916" r="2.5" fill="#D9D9D9"/>
    <circle cx="1305" cy="897" r="2.5" fill="#D9D9D9"/>
    <circle cx="1377" cy="867" r="2.5" fill="#D9D9D9"/>
    <circle cx="1089" cy="929" r="2.5" fill="#D9D9D9"/>
    <circle cx="1244.5" cy="853.5" r="2.5" fill="#D9D9D9"/>
    <circle cx="1229" cy="973.5" r="2.5" fill="#D9D9D9"/>
    <circle cx="1349" cy="953.5" r="2.5" fill="#D9D9D9"/>
    <circle cx="20.5" cy="514.5" r="2.5" fill="#D9D9D9"/>
    <circle cx="148" cy="565" r="2.5" fill="#D9D9D9"/>
    <circle cx="43.5" cy="634" r="2.5" fill="#D9D9D9"/>
    <circle cx="132.5" cy="685" r="2.5" fill="#D9D9D9"/>
    <circle cx="260" cy="735.5" r="2.5" fill="#D9D9D9"/>
    <circle cx="159.5" cy="826.5" r="2.5" fill="#D9D9D9"/>
    <circle cx="252.5" cy="665" r="2.5" fill="#D9D9D9"/>
    <circle cx="48.5" cy="916" r="2.5" fill="#D9D9D9"/>
    <circle cx="176" cy="966.5" r="2.5" fill="#D9D9D9"/>
    <circle cx="270.5" cy="829" r="2.5" fill="#D9D9D9"/>
    <circle cx="8.5" cy="774.5" r="2.5" fill="#D9D9D9"/>
    <circle cx="17.5" cy="844" r="2.5" fill="#D9D9D9"/>
    <circle cx="547" cy="784" r="2.5" fill="#D9D9D9"/>
    <circle cx="436" cy="873.5" r="2.5" fill="#D9D9D9"/>
    <circle cx="563.5" cy="924" r="2.5" fill="#D9D9D9"/>
    <circle cx="405" cy="801.5" r="2.5" fill="#D9D9D9"/>
    <circle cx="255" cy="949" r="2.5" fill="#D9D9D9"/>
    <circle cx="420.5" cy="667.5" r="2.5" fill="#D9D9D9"/>
    <circle cx="382.5" cy="560" r="5" fill="#D9D9D9"/>
    <circle cx="489.5" cy="916.5" r="5" fill="#D9D9D9"/>
    <circle cx="618.5" cy="757.5" r="5" fill="#D9D9D9"/>
    <circle cx="85.5" cy="752.5" r="5" fill="#D9D9D9"/>
    <circle cx="203.5" cy="911" r="5" fill="#D9D9D9"/>
    <circle cx="213.5" cy="524" r="5" fill="#D9D9D9"/>
    <circle cx="332" cy="714.5" r="2.5" fill="#D9D9D9"/>
    <circle cx="611" cy="853.5" r="2.5" fill="#D9D9D9"/>
    <circle cx="459.5" cy="765" r="2.5" fill="#D9D9D9"/>
    <circle cx="531.5" cy="670" r="2.5" fill="#D9D9D9"/>
    <circle cx="294" cy="630" r="2.5" fill="#D9D9D9"/>
    <circle cx="492" cy="650.5" r="2.5" fill="#D9D9D9"/>
    <circle cx="484.5" cy="580" r="2.5" fill="#D9D9D9"/>
    <circle cx="652.5" cy="582.5" r="2.5" fill="#D9D9D9"/>
    <circle cx="564" cy="629.5" r="2.5" fill="#D9D9D9"/>
    <circle cx="691.5" cy="680" r="2.5" fill="#D9D9D9"/>
    <circle cx="526" cy="545" r="2.5" fill="#D9D9D9"/>
    <circle cx="531.5" cy="735" r="2.5" fill="#D9D9D9"/>
    <circle cx="678.5" cy="916" r="2.5" fill="#D9D9D9"/>
    <circle cx="591" cy="897" r="2.5" fill="#D9D9D9"/>
    <circle cx="663" cy="867" r="2.5" fill="#D9D9D9"/>
    <circle cx="375" cy="929" r="2.5" fill="#D9D9D9"/>
    <circle cx="530.5" cy="853.5" r="2.5" fill="#D9D9D9"/>
    <circle cx="515" cy="973.5" r="2.5" fill="#D9D9D9"/>
    <circle cx="635" cy="953.5" r="2.5" fill="#D9D9D9"/>
</pattern>
<rect x="0" y="0" width="100%" height="100%" fill="url(#pattern-stars)"></rect>
</svg>
